<svg id="visual" viewBox="0 0 900 600" width="900" height="600" xmlns="http://www.w3.org/2000/svg" xmlns:xlink="http://www.w3.org/1999/xlink" version="1.1"><rect x="0" y="0" width="900" height="600" fill="#F7770F"></rect><path d="M0 193L21.5 193.3C43 193.7 86 194.3 128.8 177.2C171.7 160 214.3 125 257.2 115C300 105 343 120 385.8 130.3C428.7 140.7 471.3 146.3 514.2 149.2C557 152 600 152 642.8 150C685.7 148 728.3 144 771.2 147.7C814 151.3 857 162.7 878.5 168.3L900 174L900 0L878.5 0C857 0 814 0 771.2 0C728.3 0 685.7 0 642.8 0C600 0 557 0 514.2 0C471.3 0 428.7 0 385.8 0C343 0 300 0 257.2 0C214.3 0 171.7 0 128.8 0C86 0 43 0 21.5 0L0 0Z" fill="#FFFFFF" stroke-linecap="round" stroke-linejoin="miter"></path></svg>